<svg id="レイヤー_1" data-name="レイヤー 1" xmlns="http://www.w3.org/2000/svg" viewBox="0 0 1080 1920"><defs><style>.cls-1{fill:#3cf;}.cls-2,.cls-9{stroke:#000;stroke-miterlimit:10;}.cls-3{font-size:47px;}.cls-3,.cls-4{fill:#f2f2f2;}.cls-10,.cls-3,.cls-7{font-family:Kozuka Gothic Pr6N;}.cls-5{fill:#bff41c;}.cls-6{fill:#b3b3b3;}.cls-7{font-size:53px;}.cls-8{letter-spacing:12.22px;}.cls-10,.cls-9{fill:gray;}.cls-9{stroke-width:0.8px;}.cls-10{font-size:44px;}.cls-11{letter-spacing:-26.36px;}.cls-12{fill:#fbb03b;}</style></defs><title>SNS-kaoarin-01</title><rect class="cls-1" x="43.11" y="579.16" width="144.36" height="144.36" rx="28.26" ry="28.26"/><rect class="cls-2" y="1804.58" width="1080" height="113.16"/><rect class="cls-2" width="1080" height="90.35"/><text class="cls-3" transform="translate(476.72 63.95) scale(1.1 1)">13:30</text><rect class="cls-4" x="465.84" y="573.43" width="7.48" height="7.48"/><rect class="cls-5" x="48.92" y="140.46" width="144.36" height="144.36" rx="28.26" ry="28.26"/><path class="cls-6" d="M151.27,251.84H141.14l-25.74-35.9-7.34,7.8v28.1H99.47V180.22h8.58v35h0.41c2-2.73,4.14-5.36,6.1-7.71l24-27.26H149.1l-27.71,30.45Z"/><text class="cls-7" transform="translate(48.67 389.1) scale(0.9 1)">明日は体育祭！！<tspan x="0" y="92.75">応援合戦今年も優勝できるといいな</tspan><tspan class="cls-8" x="848" y="92.75">ぁ</tspan><tspan x="914.25" y="92.75">...</tspan></text><line class="cls-9" x1="2.3" y1="549.47" x2="1082.3" y2="549.47"/><text class="cls-7" transform="translate(213.13 642.45) scale(1.1 1)">☃Yuki☃</text><text class="cls-10" transform="translate(213.13 702.35) scale(0.97 1)">@yuki</text><text class="cls-7" transform="translate(43.57 803.75) scale(0.9 1)">@kaorin もしかして、かおりんさんの本名って<tspan x="-26.5" y="92.75">「かおり」ですか！？</tspan></text><line class="cls-9" x1="-0.06" y1="957.61" x2="1079.94" y2="957.61"/><path class="cls-4" d="M222.57,1886H164l29.25-51Zm-53.3-2.86h48l-24.05-42.58Z"/><path class="cls-4" d="M571.07,1860.53a31.14,31.14,0,1,1-31.14-31.14A31.1,31.1,0,0,1,571.07,1860.53Zm-59.35,0a28.21,28.21,0,1,0,28.21-28.21A28.19,28.19,0,0,0,511.73,1860.53Z"/><path class="cls-4" d="M868,1838v49.14H818.88V1838H868Zm-46.61,46.67h44.14v-44.2H821.35v44.2Z"/><text class="cls-7" transform="translate(213.13 202.1) scale(1.1 1)">かおりん（明日は体育祭<tspan class="cls-11" x="583" y="0">）</tspan></text><text class="cls-10" transform="translate(213.13 261.2) scale(0.97 1)">@kaorin</text><path class="cls-4" d="M136,622.35a3.64,3.64,0,0,1,3.26-1.9,5.06,5.06,0,0,1,2.44.72,4.32,4.32,0,0,1,2.44,3.62,3.44,3.44,0,0,1-.63,2l-23.89,35.84v25.79c0,2.44-1.81,3.71-4.25,3.71-2.62,0-4.34-1.27-4.34-3.71V662.62L87,626.61a3.49,3.49,0,0,1-.54-1.81A4.6,4.6,0,0,1,89,621.09a6.1,6.1,0,0,1,2.44-.63,3.84,3.84,0,0,1,3.26,1.9l20.63,32.22Z"/><rect class="cls-12" x="43.11" y="991.55" width="144.36" height="144.36" rx="28.26" ry="28.26"/><text class="cls-7" transform="translate(213.13 1054.84) scale(1.1 1)">ヒロさん</text><text class="cls-10" transform="translate(213.13 1114.74) scale(0.97 1)">@hiro1832</text><text class="cls-7" transform="translate(43.57 1216.14) scale(0.9 1)">@kaorin @yuki それマジ？</text><line class="cls-9" x1="2.3" y1="1269.48" x2="1082.3" y2="1269.48"/><path class="cls-4" d="M136.13,1031c0-2.74,2.05-4,4.89-4,2.54,0,4.5,1.27,4.5,4v69.36c0,2.64-2,4-4.5,4-2.84,0-4.89-1.37-4.89-4V1068H94.45v32.38c0,2.64-2.05,4-4.7,4s-4.7-1.37-4.7-4V1031c0-2.74,2-4,4.7-4s4.7,1.27,4.7,4v28.47h41.67V1031Z"/></svg>