<svg id="レイヤー_1" data-name="レイヤー 1" xmlns="http://www.w3.org/2000/svg" width="350" height="500" viewBox="0 0 350 500"><defs><style>.cls-1,.cls-11,.cls-7,.cls-8,.cls-9{fill:#231815;}.cls-2{font-size:16px;}.cls-10,.cls-2,.cls-4,.cls-6{fill:#f7f8f8;}.cls-10,.cls-2,.cls-4,.cls-7,.cls-8,.cls-9{font-family:Hiragino Kaku Gothic Pro;}.cls-3{fill:#22a66b;}.cls-4{font-size:35px;}.cls-5{letter-spacing:8px;}.cls-6{stroke:#595757;stroke-miterlimit:10;}.cls-7{font-size:21px;}.cls-8{font-size:27px;}.cls-9{font-size:26px;}.cls-10{font-size:22px;}.cls-11{font-size:12px;font-family:Kozuka Gothic Pr6N;}.cls-12{letter-spacing:3px;}</style></defs><title>Wi-Fi_connection</title><rect class="cls-1" width="350" height="30"/><text class="cls-2" transform="translate(9.21 23.06)">life_mobile</text><text class="cls-2" transform="translate(162 23.06)">0:28</text><rect class="cls-3" y="30" width="350" height="53.98"/><text class="cls-4" transform="translate(9.21 66.31) scale(1 1.09)">≡ </text><text class="cls-4" transform="translate(43.83 69.11)">Wi-F<tspan class="cls-5" x="77.14" y="0">i</tspan><tspan x="94.22" y="0">へ接続</tspan></text><rect class="cls-6" y="117.67" width="116.07" height="46.85"/><rect class="cls-6" x="116.07" y="117.67" width="233.93" height="46.85"/><text class="cls-7" transform="translate(38.44 148.51)">なし</text><text class="cls-8" transform="translate(125.85 152.1)">free-wifi</text><rect class="cls-6" y="174.12" width="116.07" height="46.85"/><rect class="cls-6" x="116.07" y="174.12" width="233.93" height="46.85"/><text class="cls-7" transform="translate(7.64 206.28)">WPA-PSK</text><text class="cls-9" transform="translate(125.85 207.99)">life_mobile-wifi</text><rect class="cls-6" y="230.58" width="116.07" height="46.85"/><rect class="cls-6" x="116.07" y="230.58" width="233.93" height="46.85"/><text class="cls-7" transform="translate(33.23 261.73)">WEP</text><text class="cls-9" transform="translate(125.85 264.44)">burger-wifi</text><rect class="cls-1" y="454.55" width="350" height="45.45"/><text class="cls-10" transform="translate(162.3 486.92)">◯</text><text class="cls-10" transform="translate(265.69 486.05)">□</text><text class="cls-10" transform="translate(68.81 486.92)">△</text><rect class="cls-6" y="287.03" width="116.07" height="46.85"/><rect class="cls-6" x="116.07" y="287.03" width="233.93" height="46.85"/><text class="cls-9" transform="translate(125.85 320.9)">life-mobile-wifi</text><text class="cls-7" transform="translate(38.44 317.62)">なし</text><text class="cls-11" transform="translate(17.35 107.73)">セキュリティー</text><text class="cls-11" transform="translate(125.85 107.73)">Wi-F<tspan class="cls-12" x="24.32" y="0">i</tspan><tspan x="30.3" y="0">名</tspan></text></svg>